<svg width="76" height="45" viewBox="0 0 76 45" fill="none" xmlns="http://www.w3.org/2000/svg">
<path d="M35.4217 17.5532V13.0532C35.4217 12.0587 35.0017 11.1048 34.2541 10.4016C33.5065 9.69831 32.4926 9.30322 31.4354 9.30322C30.3782 9.30322 29.3643 9.69831 28.6167 10.4016C27.8691 11.1048 27.4492 12.0587 27.4492 13.0532V17.5532M39.5206 15.5602L40.8632 27.5602C40.9376 28.2252 40.3848 28.8032 39.6737 28.8032H23.1972C23.0294 28.8034 22.8635 28.7704 22.7102 28.7063C22.557 28.6422 22.4197 28.5485 22.3075 28.4313C22.1952 28.3141 22.1104 28.1759 22.0585 28.0259C22.0067 27.8758 21.989 27.7171 22.0066 27.5602L23.3502 15.5602C23.3812 15.2838 23.5199 15.0279 23.7396 14.842C23.9592 14.656 24.2442 14.5532 24.5397 14.5532H38.3311C38.9434 14.5532 39.4568 14.9882 39.5206 15.5602ZM27.8478 17.5532C27.8478 17.6527 27.8058 17.7481 27.731 17.8184C27.6563 17.8887 27.5549 17.9282 27.4492 17.9282C27.3434 17.9282 27.242 17.8887 27.1673 17.8184C27.0925 17.7481 27.0505 17.6527 27.0505 17.5532C27.0505 17.4538 27.0925 17.3584 27.1673 17.2881C27.242 17.2177 27.3434 17.1782 27.4492 17.1782C27.5549 17.1782 27.6563 17.2177 27.731 17.2881C27.8058 17.3584 27.8478 17.4538 27.8478 17.5532V17.5532ZM35.8203 17.5532C35.8203 17.6527 35.7783 17.7481 35.7035 17.8184C35.6288 17.8887 35.5274 17.9282 35.4217 17.9282C35.3159 17.9282 35.2145 17.8887 35.1398 17.8184C35.065 17.7481 35.023 17.6527 35.023 17.5532C35.023 17.4538 35.065 17.3584 35.1398 17.2881C35.2145 17.2177 35.3159 17.1782 35.4217 17.1782C35.5274 17.1782 35.6288 17.2177 35.7035 17.2881C35.7783 17.3584 35.8203 17.4538 35.8203 17.5532V17.5532Z" stroke="black" stroke-width="1.5" stroke-linecap="round" stroke-linejoin="round"/>
<rect x="36" y="17.3032" width="17.7865" height="18.3933" rx="8.89326" fill="#FF1C1C"/>
<path d="M41.9841 25.2944C42.0388 24.9151 42.1445 24.5833 42.3014 24.2988C42.4582 24.0107 42.6533 23.7719 42.8867 23.5822C43.1237 23.3889 43.3936 23.2449 43.6962 23.1501C44.0026 23.0516 44.3308 23.0024 44.6809 23.0024C45.0456 23.0024 45.3738 23.0553 45.6655 23.161C45.9609 23.2631 46.2125 23.4072 46.4204 23.5932C46.6282 23.7755 46.7869 23.9907 46.8963 24.2386C47.0093 24.4866 47.0659 24.7547 47.0659 25.0428C47.0659 25.2944 47.0367 25.5168 46.9783 25.7101C46.9236 25.8997 46.8434 26.0657 46.7377 26.2079C46.6319 26.3501 46.5006 26.4705 46.3438 26.5689C46.187 26.6674 46.0101 26.7494 45.8132 26.8151C46.2873 26.9646 46.641 27.1925 46.8744 27.4989C47.1078 27.8052 47.2245 28.1899 47.2245 28.6531C47.2245 29.0469 47.1516 29.3952 47.0057 29.6979C46.8598 30.0005 46.6629 30.2558 46.4149 30.4637C46.1669 30.6679 45.8788 30.8229 45.5506 30.9286C45.2261 31.0344 44.8814 31.0873 44.5168 31.0873C44.1193 31.0873 43.7728 31.0417 43.4774 30.9505C43.1821 30.8594 42.925 30.7244 42.7061 30.5457C42.4873 30.367 42.3014 30.1482 42.1482 29.8893C41.995 29.6304 41.8637 29.3314 41.7543 28.9922L42.3506 28.7461C42.5074 28.6804 42.6533 28.664 42.7882 28.6968C42.9268 28.726 43.0271 28.7989 43.0891 28.9156C43.1547 29.0433 43.2258 29.1691 43.3024 29.2931C43.3826 29.4171 43.4774 29.5283 43.5868 29.6267C43.6962 29.7216 43.8239 29.8 43.9698 29.862C44.1193 29.9203 44.2961 29.9495 44.5004 29.9495C44.7301 29.9495 44.9307 29.913 45.1021 29.8401C45.2735 29.7635 45.4157 29.665 45.5287 29.5447C45.6454 29.4244 45.7311 29.2912 45.7858 29.1454C45.8442 28.9959 45.8734 28.8463 45.8734 28.6968C45.8734 28.5072 45.8533 28.3358 45.8132 28.1826C45.7731 28.0258 45.6892 27.8927 45.5616 27.7833C45.4339 27.6739 45.2498 27.5882 45.0091 27.5262C44.772 27.4642 44.453 27.4332 44.0518 27.4332V26.4705C44.3837 26.4668 44.659 26.4358 44.8778 26.3775C45.0966 26.3191 45.2698 26.2389 45.3975 26.1368C45.5287 26.031 45.6199 25.9052 45.671 25.7593C45.722 25.6135 45.7476 25.453 45.7476 25.278C45.7476 24.906 45.6436 24.6234 45.4358 24.4301C45.2279 24.2368 44.9507 24.1402 44.6043 24.1402C44.4438 24.1402 44.2961 24.1639 44.1612 24.2113C44.0263 24.2551 43.9041 24.3189 43.7947 24.4027C43.689 24.483 43.5996 24.5778 43.5267 24.6872C43.4537 24.7966 43.399 24.9169 43.3626 25.0482C43.3006 25.216 43.2185 25.3272 43.1164 25.3819C43.0179 25.4366 42.8775 25.4494 42.6952 25.4202L41.9841 25.2944Z" fill="white"/>
</svg>
