<svg width="22" height="22" viewBox="0 0 22 22" fill="none" xmlns="http://www.w3.org/2000/svg">
<path d="M15.0286 9.05347V4.55347C15.0286 3.5589 14.6086 2.60508 13.861 1.90182C13.1135 1.19855 12.0996 0.803467 11.0423 0.803467C9.98512 0.803467 8.9712 1.19855 8.22364 1.90182C7.47607 2.60508 7.05609 3.5589 7.05609 4.55347V9.05347M19.1275 7.06047L20.4701 19.0605C20.5445 19.7255 19.9917 20.3035 19.2806 20.3035H2.80409C2.63636 20.3036 2.47046 20.2706 2.31718 20.2065C2.1639 20.1425 2.02666 20.0488 1.91438 19.9315C1.8021 19.8143 1.71729 19.6762 1.66546 19.5261C1.61363 19.376 1.59594 19.2174 1.61353 19.0605L2.95716 7.06047C2.98816 6.78403 3.12684 6.52817 3.34649 6.34222C3.56613 6.15628 3.85117 6.05342 4.14666 6.05347H17.938C18.5503 6.05347 19.0637 6.48847 19.1275 7.06047ZM7.45471 9.05347C7.45471 9.15292 7.41272 9.24831 7.33796 9.31863C7.2632 9.38896 7.16181 9.42847 7.05609 9.42847C6.95037 9.42847 6.84898 9.38896 6.77422 9.31863C6.69946 9.24831 6.65746 9.15292 6.65746 9.05347C6.65746 8.95401 6.69946 8.85863 6.77422 8.7883C6.84898 8.71798 6.95037 8.67847 7.05609 8.67847C7.16181 8.67847 7.2632 8.71798 7.33796 8.7883C7.41272 8.85863 7.45471 8.95401 7.45471 9.05347V9.05347ZM15.4272 9.05347C15.4272 9.15292 15.3852 9.24831 15.3105 9.31863C15.2357 9.38896 15.1343 9.42847 15.0286 9.42847C14.9229 9.42847 14.8215 9.38896 14.7467 9.31863C14.672 9.24831 14.63 9.15292 14.63 9.05347C14.63 8.95401 14.672 8.85863 14.7467 8.7883C14.8215 8.71798 14.9229 8.67847 15.0286 8.67847C15.1343 8.67847 15.2357 8.71798 15.3105 8.7883C15.3852 8.85863 15.4272 8.95401 15.4272 9.05347V9.05347Z" stroke="black" stroke-width="1.5" stroke-linecap="round" stroke-linejoin="round"/>
</svg>
